<svg xmlns="http://www.w3.org/2000/svg" viewBox="0 0 280.36 33.46"><defs><style>.cls-1{fill:#c9db17;}</style></defs><title>Asset 3</title><g id="Layer_2" data-name="Layer 2"><g id="Layer_1-2" data-name="Layer 1"><path d="M23.43,1.67a2.31,2.31,0,0,1,1.41-1A8.68,8.68,0,0,1,27.19.36a9.43,9.43,0,0,1,2.28.22,3.77,3.77,0,0,1,1.29.54,1.82,1.82,0,0,1,.62.93,6.64,6.64,0,0,1,.29,2.28V29.09a11.55,11.55,0,0,1-.07,1.56,3.4,3.4,0,0,1-.47,1.16c-.46.81-1.75,1.21-3.86,1.21a8.86,8.86,0,0,1-2.67-.27,2.85,2.85,0,0,1-1.24-.85Q12.23,18.52,8.71,14.41V29.09a11.55,11.55,0,0,1-.07,1.56,3.4,3.4,0,0,1-.47,1.16C7.7,32.62,6.42,33,4.31,33S1,32.62.54,31.81a3.33,3.33,0,0,1-.47-1.2A12.36,12.36,0,0,1,0,29.05V4.15A5,5,0,0,1,.47,1.67a2.26,2.26,0,0,1,1.41-1A9.06,9.06,0,0,1,4.31.36,9.21,9.21,0,0,1,6.66.6a3.25,3.25,0,0,1,1.21.56A13.54,13.54,0,0,1,9,2.32Q19.45,15.13,23,19.23V4.15A5,5,0,0,1,23.43,1.67Z"/><path d="M52.56,25.12H67.8a14.51,14.51,0,0,1,1.71.07,4.09,4.09,0,0,1,1.31.42c.89.42,1.33,1.58,1.33,3.48q0,3.12-1.83,3.66a9,9,0,0,1-2.57.27H48.15c-2.31,0-3.66-.57-4.06-1.7a6.54,6.54,0,0,1-.29-2.27V4.24a4,4,0,0,1,.94-3.1C45.36.59,46.55.31,48.3.31H67.8a14.51,14.51,0,0,1,1.71.07A4.36,4.36,0,0,1,70.82.8c.89.42,1.33,1.58,1.33,3.48q0,3.14-1.83,3.66a9,9,0,0,1-2.57.27H52.56v4.51h9.8c.75,0,1.32,0,1.7.06a4.47,4.47,0,0,1,1.32.43c.89.41,1.33,1.57,1.33,3.48,0,2.08-.63,3.3-1.88,3.66a9.51,9.51,0,0,1-2.57.26h-9.7Z"/><path d="M106.2,24.45l.89-.58a6.37,6.37,0,0,1,2.38-.89c1,0,2.13.83,3.32,2.5a4.9,4.9,0,0,1,1.08,2.5,2.07,2.07,0,0,1-.66,1.56,7.54,7.54,0,0,1-1.56,1.11l-1.71.94a18.44,18.44,0,0,1-3.34,1.16,17.73,17.73,0,0,1-4.88.71A20.39,20.39,0,0,1,92,31a20.3,20.3,0,0,1-4.57-3.21A14.41,14.41,0,0,1,84.11,23a15.7,15.7,0,0,1-1.32-6.45,15,15,0,0,1,1.29-6.31,14.56,14.56,0,0,1,3.29-4.69A18.83,18.83,0,0,1,92,2.41,21.66,21.66,0,0,1,101.7,0a18.2,18.2,0,0,1,4.73.65A17.79,17.79,0,0,1,110.06,2l1.19.63c.59.33,1.06.59,1.39.8a2.66,2.66,0,0,1,1.28,2.12,4,4,0,0,1-1,2.48c-1.28,1.6-2.44,2.41-3.46,2.41a5.57,5.57,0,0,1-2.52-1,9.17,9.17,0,0,0-5.55-1.52,11.58,11.58,0,0,0-6.33,2,7.67,7.67,0,0,0-2.48,2.76,8.2,8.2,0,0,0-1,4,8.2,8.2,0,0,0,1,4,7.84,7.84,0,0,0,2.53,2.81,11.35,11.35,0,0,0,6.28,2,11.76,11.76,0,0,0,2.9-.35A7.78,7.78,0,0,0,106.2,24.45Z"/><path d="M127.68.27H155.2a6.06,6.06,0,0,1,2.32.33,1.76,1.76,0,0,1,1,1,5.73,5.73,0,0,1,.25,1.88,5.5,5.5,0,0,1-.25,1.85,1.55,1.55,0,0,1-.84,1,6.43,6.43,0,0,1-2.52.4H145.7V29.18a10.88,10.88,0,0,1-.08,1.52,3.52,3.52,0,0,1-.44,1.14,2.1,2.1,0,0,1-1.32.91,9.18,9.18,0,0,1-2.47.27,9,9,0,0,1-2.45-.27,2.09,2.09,0,0,1-1.29-.91,3.52,3.52,0,0,1-.44-1.16,11.54,11.54,0,0,1-.08-1.54V6.74h-9.5a5.83,5.83,0,0,1-2.32-.34,1.71,1.71,0,0,1-1-1.05,5.67,5.67,0,0,1-.25-1.87,5.5,5.5,0,0,1,.25-1.85,1.55,1.55,0,0,1,.84-1A6.25,6.25,0,0,1,127.68.27Z"/><path d="M183.16,2.63l13.36,24.9a5.42,5.42,0,0,1,.84,2.28c0,1.07-1,2-2.87,2.9a7,7,0,0,1-2.65.75,2.83,2.83,0,0,1-1.58-.4,2.79,2.79,0,0,1-.89-.84c-.18-.3-.44-.75-.77-1.34L186,26.06H172.32l-2.57,4.82c-.33.59-.59,1-.77,1.29a3.45,3.45,0,0,1-.89.83,2.76,2.76,0,0,1-1.59.42,6.92,6.92,0,0,1-2.64-.76c-1.92-.83-2.87-1.78-2.87-2.85a5.42,5.42,0,0,1,.84-2.28L175.19,2.59A4,4,0,0,1,176.85.94,4.68,4.68,0,0,1,179.2.31,4.25,4.25,0,0,1,183.16,2.63Zm-4,10.71-3.27,6.11h6.58Z"/><path d="M236,27.49a6.39,6.39,0,0,1,.74,2.32q0,1.7-3.06,2.85a7.39,7.39,0,0,1-2.55.63,2.81,2.81,0,0,1-1.59-.43,3.32,3.32,0,0,1-.91-.87c-.33-.56-1.62-3.26-3.86-8.07l-1.53.09H217v5a11.43,11.43,0,0,1-.08,1.54,3.1,3.1,0,0,1-.47,1.18c-.46.8-1.74,1.2-3.86,1.2q-3.47,0-4-1.65a6.69,6.69,0,0,1-.3-2.32V4.24a11.8,11.8,0,0,1,.07-1.54,3.4,3.4,0,0,1,.47-1.18c.47-.81,1.75-1.21,3.86-1.21h10.69a14.69,14.69,0,0,1,8.47,2.86,10.69,10.69,0,0,1,3.26,3.75,10.78,10.78,0,0,1,1.29,5.26,10.57,10.57,0,0,1-3.71,8.3C233.37,22.06,234.5,24.39,236,27.49ZM217,16.11h6.33a5.06,5.06,0,0,0,2.87-1,3.34,3.34,0,0,0,1.44-3,3.39,3.39,0,0,0-1.44-3,5.07,5.07,0,0,0-3-1H217Z"/><path class="cls-1" d="M277.8,11.27l-1.11-.55.36-1.09c1.09-3.37-2.38-6.5-6.11-5.51l-1.22.32-.6-1a5.19,5.19,0,0,0-8.64,0l-.61,1-1.21-.32c-3.74-1-7.21,2.14-6.11,5.51l.35,1.09-1.11.55a4.24,4.24,0,0,0,0,7.79l1.11.55-.35,1.09c-1.1,3.37,2.37,6.5,6.11,5.51l1.21-.32.61,1a5.19,5.19,0,0,0,8.64,0l.6-1,1.22.32c3.73,1,7.2-2.14,6.11-5.51l-.36-1.09,1.11-.55A4.24,4.24,0,0,0,277.8,11.27Z"/></g></g></svg>